<?xml version="1.0" encoding="UTF-8"?>
<svg xmlns="http://www.w3.org/2000/svg" version="1.1" width="300" height="300" viewBox="0 0 300 300"><rect x="0" y="0" width="300" height="300" fill="#ffffff"/><g transform="scale(10.345)"><g transform="translate(0,0)"><path fill-rule="evenodd" d="M10 0L10 1L9 1L9 2L8 2L8 3L9 3L9 5L10 5L10 7L11 7L11 8L12 8L12 9L11 9L11 10L10 10L10 9L9 9L9 6L8 6L8 8L4 8L4 9L5 9L5 10L4 10L4 11L5 11L5 12L4 12L4 13L3 13L3 11L2 11L2 10L0 10L0 11L1 11L1 13L2 13L2 14L3 14L3 17L4 17L4 18L3 18L3 19L4 19L4 20L2 20L2 19L1 19L1 18L2 18L2 15L1 15L1 14L0 14L0 16L1 16L1 18L0 18L0 19L1 19L1 20L0 20L0 21L1 21L1 20L2 20L2 21L7 21L7 20L8 20L8 25L9 25L9 26L8 26L8 29L9 29L9 26L10 26L10 27L12 27L12 28L10 28L10 29L12 29L12 28L14 28L14 29L15 29L15 26L14 26L14 25L13 25L13 24L12 24L12 23L10 23L10 22L12 22L12 20L14 20L14 22L13 22L13 23L14 23L14 22L15 22L15 18L14 18L14 17L13 17L13 16L12 16L12 15L11 15L11 14L12 14L12 12L14 12L14 14L13 14L13 15L14 15L14 14L16 14L16 13L18 13L18 15L17 15L17 17L16 17L16 15L15 15L15 17L16 17L16 22L17 22L17 24L16 24L16 23L15 23L15 25L16 25L16 27L17 27L17 29L18 29L18 28L19 28L19 29L23 29L23 28L21 28L21 25L23 25L23 27L25 27L25 25L26 25L26 24L25 24L25 23L26 23L26 22L27 22L27 23L29 23L29 21L26 21L26 22L25 22L25 20L26 20L26 18L27 18L27 20L28 20L28 19L29 19L29 16L28 16L28 15L29 15L29 12L28 12L28 11L29 11L29 9L28 9L28 10L26 10L26 9L27 9L27 8L26 8L26 9L25 9L25 10L24 10L24 12L25 12L25 14L24 14L24 16L26 16L26 15L25 15L25 14L27 14L27 17L26 17L26 18L25 18L25 20L24 20L24 18L23 18L23 15L22 15L22 14L23 14L23 12L22 12L22 13L20 13L20 14L21 14L21 15L20 15L20 16L19 16L19 12L18 12L18 11L19 11L19 10L17 10L17 8L18 8L18 7L19 7L19 9L20 9L20 12L21 12L21 10L22 10L22 11L23 11L23 8L21 8L21 9L20 9L20 7L21 7L21 6L20 6L20 5L21 5L21 4L19 4L19 6L18 6L18 4L17 4L17 3L16 3L16 2L15 2L15 3L16 3L16 5L14 5L14 3L12 3L12 2L11 2L11 3L12 3L12 5L10 5L10 3L9 3L9 2L10 2L10 1L11 1L11 0ZM14 0L14 1L13 1L13 2L14 2L14 1L15 1L15 0ZM17 0L17 1L19 1L19 2L18 2L18 3L20 3L20 2L21 2L21 1L19 1L19 0ZM13 5L13 7L12 7L12 6L11 6L11 7L12 7L12 8L13 8L13 9L14 9L14 10L13 10L13 11L14 11L14 10L15 10L15 9L16 9L16 8L17 8L17 7L18 7L18 6L17 6L17 7L16 7L16 6L15 6L15 7L14 7L14 5ZM19 6L19 7L20 7L20 6ZM15 7L15 8L16 8L16 7ZM0 8L0 9L3 9L3 8ZM6 9L6 10L8 10L8 11L10 11L10 10L9 10L9 9ZM25 10L25 11L26 11L26 13L27 13L27 14L28 14L28 13L27 13L27 11L26 11L26 10ZM6 11L6 12L5 12L5 13L4 13L4 14L7 14L7 15L4 15L4 16L7 16L7 17L6 17L6 18L9 18L9 19L8 19L8 20L9 20L9 22L10 22L10 20L12 20L12 19L11 19L11 18L9 18L9 17L12 17L12 16L9 16L9 15L10 15L10 12L8 12L8 13L6 13L6 12L7 12L7 11ZM11 11L11 12L12 12L12 11ZM15 11L15 12L16 12L16 11ZM8 14L8 15L9 15L9 14ZM8 16L8 17L9 17L9 16ZM17 17L17 18L18 18L18 19L20 19L20 18L22 18L22 17ZM27 17L27 18L28 18L28 17ZM13 18L13 19L14 19L14 18ZM5 19L5 20L7 20L7 19ZM22 19L22 20L23 20L23 19ZM18 20L18 21L19 21L19 22L18 22L18 26L17 26L17 27L19 27L19 28L20 28L20 23L19 23L19 22L20 22L20 20ZM21 21L21 24L24 24L24 21ZM22 22L22 23L23 23L23 22ZM9 23L9 25L12 25L12 24L10 24L10 23ZM28 24L28 25L27 25L27 26L26 26L26 27L27 27L27 29L29 29L29 28L28 28L28 27L29 27L29 24ZM13 26L13 27L14 27L14 26ZM27 26L27 27L28 27L28 26ZM24 28L24 29L25 29L25 28ZM0 0L7 0L7 7L0 7ZM1 1L1 6L6 6L6 1ZM5 3.5A1.5 1.5 0 0 1 3.5 5A1.5 1.5 0 0 1 2 3.5A1.5 1.5 0 0 1 3.5 2A1.5 1.5 0 0 1 5 3.5ZM22 0L29 0L29 7L22 7ZM23 1L23 6L28 6L28 1ZM27 3.5A1.5 1.5 0 0 1 25.5 5A1.5 1.5 0 0 1 24 3.5A1.5 1.5 0 0 1 25.5 2A1.5 1.5 0 0 1 27 3.5ZM0 22L7 22L7 29L0 29ZM1 23L1 28L6 28L6 23ZM5 25.5A1.5 1.5 0 0 1 3.5 27A1.5 1.5 0 0 1 2 25.5A1.5 1.5 0 0 1 3.5 24A1.5 1.5 0 0 1 5 25.5Z" fill="#000000"/></g></g></svg>
