<?xml version="1.0" encoding="UTF-8"?>
<svg xmlns="http://www.w3.org/2000/svg" version="1.1" width="300" height="300" viewBox="0 0 300 300"><rect x="0" y="0" width="300" height="300" fill="#ffffff"/><g transform="scale(10.345)"><g transform="translate(0,0)"><path fill-rule="evenodd" d="M9 0L9 1L8 1L8 2L9 2L9 3L8 3L8 4L10 4L10 7L11 7L11 4L12 4L12 5L13 5L13 6L12 6L12 9L13 9L13 8L14 8L14 9L15 9L15 10L17 10L17 11L16 11L16 12L17 12L17 14L16 14L16 13L12 13L12 11L13 11L13 10L11 10L11 11L10 11L10 9L11 9L11 8L6 8L6 9L5 9L5 8L0 8L0 10L4 10L4 9L5 9L5 11L7 11L7 12L6 12L6 13L7 13L7 14L5 14L5 15L4 15L4 14L3 14L3 13L4 13L4 11L0 11L0 13L1 13L1 14L0 14L0 16L1 16L1 14L2 14L2 15L3 15L3 16L2 16L2 17L0 17L0 21L1 21L1 18L2 18L2 17L3 17L3 18L4 18L4 19L2 19L2 20L3 20L3 21L5 21L5 20L6 20L6 21L8 21L8 23L9 23L9 21L8 21L8 18L9 18L9 17L11 17L11 13L12 13L12 14L13 14L13 15L12 15L12 17L13 17L13 16L14 16L14 17L15 17L15 16L16 16L16 18L15 18L15 19L14 19L14 20L15 20L15 21L12 21L12 19L13 19L13 18L11 18L11 21L12 21L12 22L13 22L13 23L12 23L12 25L13 25L13 24L14 24L14 25L15 25L15 24L16 24L16 23L18 23L18 24L17 24L17 25L16 25L16 26L15 26L15 27L14 27L14 28L15 28L15 29L18 29L18 28L15 28L15 27L16 27L16 26L17 26L17 25L18 25L18 26L21 26L21 27L19 27L19 29L20 29L20 28L21 28L21 27L23 27L23 28L24 28L24 29L25 29L25 28L26 28L26 29L27 29L27 28L28 28L28 26L29 26L29 25L28 25L28 24L26 24L26 23L27 23L27 22L29 22L29 20L28 20L28 19L27 19L27 16L28 16L28 15L27 15L27 12L28 12L28 11L27 11L27 12L25 12L25 13L22 13L22 12L21 12L21 11L22 11L22 10L24 10L24 11L23 11L23 12L24 12L24 11L25 11L25 9L26 9L26 8L25 8L25 9L24 9L24 8L23 8L23 9L22 9L22 8L19 8L19 5L20 5L20 3L21 3L21 0L20 0L20 2L18 2L18 3L17 3L17 2L16 2L16 4L12 4L12 2L13 2L13 1L11 1L11 2L10 2L10 0ZM15 0L15 1L19 1L19 0ZM14 2L14 3L15 3L15 2ZM10 3L10 4L11 4L11 3ZM16 4L16 5L17 5L17 7L16 7L16 6L15 6L15 7L14 7L14 6L13 6L13 7L14 7L14 8L15 8L15 7L16 7L16 9L19 9L19 8L18 8L18 5L19 5L19 4L18 4L18 5L17 5L17 4ZM8 5L8 7L9 7L9 5ZM20 6L20 7L21 7L21 6ZM27 8L27 9L28 9L28 10L29 10L29 9L28 9L28 8ZM6 9L6 10L7 10L7 9ZM8 9L8 10L9 10L9 9ZM19 10L19 11L17 11L17 12L19 12L19 13L18 13L18 14L17 14L17 15L16 15L16 16L19 16L19 15L20 15L20 14L19 14L19 13L20 13L20 12L19 12L19 11L21 11L21 10ZM14 11L14 12L15 12L15 11ZM2 12L2 13L3 13L3 12ZM7 12L7 13L8 13L8 12ZM10 12L10 13L9 13L9 14L10 14L10 13L11 13L11 12ZM25 13L25 15L24 15L24 14L23 14L23 15L24 15L24 16L20 16L20 18L18 18L18 19L17 19L17 18L16 18L16 19L15 19L15 20L16 20L16 21L15 21L15 22L16 22L16 21L17 21L17 22L18 22L18 23L19 23L19 21L20 21L20 19L22 19L22 20L24 20L24 19L25 19L25 21L26 21L26 20L27 20L27 19L25 19L25 18L24 18L24 19L23 19L23 18L22 18L22 17L26 17L26 16L27 16L27 15L26 15L26 13ZM28 13L28 14L29 14L29 13ZM18 14L18 15L19 15L19 14ZM21 14L21 15L22 15L22 14ZM6 15L6 16L5 16L5 17L4 17L4 18L5 18L5 17L6 17L6 18L8 18L8 17L9 17L9 16L10 16L10 15L8 15L8 17L6 17L6 16L7 16L7 15ZM14 15L14 16L15 16L15 15ZM28 17L28 18L29 18L29 17ZM6 19L6 20L7 20L7 19ZM9 19L9 20L10 20L10 19ZM16 19L16 20L17 20L17 21L18 21L18 20L17 20L17 19ZM21 21L21 24L24 24L24 21ZM10 22L10 23L11 23L11 22ZM22 22L22 23L23 23L23 22ZM14 23L14 24L15 24L15 23ZM8 24L8 29L9 29L9 28L10 28L10 29L12 29L12 27L13 27L13 26L11 26L11 25L9 25L9 24ZM18 24L18 25L20 25L20 24ZM21 25L21 26L25 26L25 27L26 27L26 28L27 28L27 25L26 25L26 26L25 26L25 25ZM9 26L9 27L10 27L10 28L11 28L11 26ZM0 0L7 0L7 7L0 7ZM1 1L1 6L6 6L6 1ZM5 3.5A1.5 1.5 0 0 1 3.5 5A1.5 1.5 0 0 1 2 3.5A1.5 1.5 0 0 1 3.5 2A1.5 1.5 0 0 1 5 3.5ZM22 0L29 0L29 7L22 7ZM23 1L23 6L28 6L28 1ZM27 3.5A1.5 1.5 0 0 1 25.5 5A1.5 1.5 0 0 1 24 3.5A1.5 1.5 0 0 1 25.5 2A1.5 1.5 0 0 1 27 3.5ZM0 22L7 22L7 29L0 29ZM1 23L1 28L6 28L6 23ZM5 25.5A1.5 1.5 0 0 1 3.5 27A1.5 1.5 0 0 1 2 25.5A1.5 1.5 0 0 1 3.5 24A1.5 1.5 0 0 1 5 25.5Z" fill="#000000"/></g></g></svg>
