<?xml version="1.0" encoding="UTF-8"?>
<svg xmlns="http://www.w3.org/2000/svg" version="1.1" width="300" height="300" viewBox="0 0 300 300"><rect x="0" y="0" width="300" height="300" fill="#ffffff"/><g transform="scale(10.345)"><g transform="translate(0,0)"><path fill-rule="evenodd" d="M8 0L8 1L10 1L10 0ZM15 0L15 1L14 1L14 2L11 2L11 4L10 4L10 3L9 3L9 2L8 2L8 5L9 5L9 6L8 6L8 7L9 7L9 8L8 8L8 9L7 9L7 8L6 8L6 9L5 9L5 10L4 10L4 8L0 8L0 10L1 10L1 9L3 9L3 10L2 10L2 11L0 11L0 12L2 12L2 13L0 13L0 15L2 15L2 13L4 13L4 14L3 14L3 15L4 15L4 16L1 16L1 17L2 17L2 18L3 18L3 19L2 19L2 20L1 20L1 21L2 21L2 20L3 20L3 21L4 21L4 20L5 20L5 21L8 21L8 22L9 22L9 21L8 21L8 20L6 20L6 19L7 19L7 18L5 18L5 17L7 17L7 16L9 16L9 14L6 14L6 15L7 15L7 16L5 16L5 12L6 12L6 13L8 13L8 12L9 12L9 13L10 13L10 16L11 16L11 17L8 17L8 19L9 19L9 20L10 20L10 24L9 24L9 25L8 25L8 29L10 29L10 28L12 28L12 29L13 29L13 28L12 28L12 26L13 26L13 27L14 27L14 29L15 29L15 27L14 27L14 26L16 26L16 27L17 27L17 26L18 26L18 27L19 27L19 28L18 28L18 29L22 29L22 28L21 28L21 27L20 27L20 25L21 25L21 26L22 26L22 25L23 25L23 29L24 29L24 28L26 28L26 26L27 26L27 25L28 25L28 27L27 27L27 29L28 29L28 27L29 27L29 25L28 25L28 24L29 24L29 23L28 23L28 22L29 22L29 21L27 21L27 18L28 18L28 15L29 15L29 13L27 13L27 12L26 12L26 11L28 11L28 12L29 12L29 11L28 11L28 10L29 10L29 8L28 8L28 10L26 10L26 11L24 11L24 10L25 10L25 9L27 9L27 8L24 8L24 9L22 9L22 8L21 8L21 6L20 6L20 5L21 5L21 4L20 4L20 3L21 3L21 2L20 2L20 3L19 3L19 2L18 2L18 0ZM20 0L20 1L21 1L21 0ZM16 1L16 3L12 3L12 5L10 5L10 6L9 6L9 7L10 7L10 8L9 8L9 9L10 9L10 10L9 10L9 12L10 12L10 13L11 13L11 11L14 11L14 10L15 10L15 9L16 9L16 8L17 8L17 9L18 9L18 11L17 11L17 10L16 10L16 12L12 12L12 14L11 14L11 16L12 16L12 17L11 17L11 18L10 18L10 19L11 19L11 20L12 20L12 19L11 19L11 18L12 18L12 17L14 17L14 18L13 18L13 20L14 20L14 21L15 21L15 22L14 22L14 23L11 23L11 24L10 24L10 25L12 25L12 24L13 24L13 26L14 26L14 24L15 24L15 25L17 25L17 24L18 24L18 26L19 26L19 25L20 25L20 23L18 23L18 22L19 22L19 21L17 21L17 24L16 24L16 20L15 20L15 15L16 15L16 16L17 16L17 17L16 17L16 19L17 19L17 17L18 17L18 19L19 19L19 20L23 20L23 16L22 16L22 18L21 18L21 17L19 17L19 15L18 15L18 14L17 14L17 12L18 12L18 11L19 11L19 13L20 13L20 14L22 14L22 15L24 15L24 16L25 16L25 17L24 17L24 20L26 20L26 19L25 19L25 18L26 18L26 17L27 17L27 15L25 15L25 14L27 14L27 13L25 13L25 12L22 12L22 13L20 13L20 10L19 10L19 9L20 9L20 6L19 6L19 7L18 7L18 6L17 6L17 4L16 4L16 3L18 3L18 2L17 2L17 1ZM13 4L13 5L12 5L12 7L11 7L11 6L10 6L10 7L11 7L11 8L12 8L12 7L13 7L13 9L15 9L15 5L14 5L14 4ZM13 5L13 7L14 7L14 5ZM16 6L16 7L17 7L17 8L18 8L18 9L19 9L19 8L18 8L18 7L17 7L17 6ZM6 9L6 10L5 10L5 11L4 11L4 10L3 10L3 11L2 11L2 12L5 12L5 11L6 11L6 12L8 12L8 11L6 11L6 10L7 10L7 9ZM21 10L21 11L23 11L23 10ZM13 13L13 14L12 14L12 16L14 16L14 15L15 15L15 14L14 14L14 13ZM22 13L22 14L23 14L23 13ZM13 14L13 15L14 15L14 14ZM4 16L4 17L5 17L5 16ZM0 18L0 19L1 19L1 18ZM4 18L4 19L5 19L5 18ZM11 21L11 22L12 22L12 21ZM21 21L21 24L24 24L24 21ZM22 22L22 23L23 23L23 22ZM26 22L26 23L25 23L25 24L27 24L27 22ZM9 26L9 27L11 27L11 26ZM24 26L24 27L25 27L25 26ZM16 28L16 29L17 29L17 28ZM0 0L7 0L7 7L0 7ZM1 1L1 6L6 6L6 1ZM5 3.5A1.5 1.5 0 0 1 3.5 5A1.5 1.5 0 0 1 2 3.5A1.5 1.5 0 0 1 3.5 2A1.5 1.5 0 0 1 5 3.5ZM22 0L29 0L29 7L22 7ZM23 1L23 6L28 6L28 1ZM27 3.5A1.5 1.5 0 0 1 25.5 5A1.5 1.5 0 0 1 24 3.5A1.5 1.5 0 0 1 25.5 2A1.5 1.5 0 0 1 27 3.5ZM0 22L7 22L7 29L0 29ZM1 23L1 28L6 28L6 23ZM5 25.5A1.5 1.5 0 0 1 3.5 27A1.5 1.5 0 0 1 2 25.5A1.5 1.5 0 0 1 3.5 24A1.5 1.5 0 0 1 5 25.5Z" fill="#000000"/></g></g></svg>
